<svg xmlns="http://www.w3.org/2000/svg" width="176" height="207.458" viewBox="0 0 176 207.458">
  <g id="Groupe_195" data-name="Groupe 195" transform="translate(-655 -113.548)">
    <path id="Soustraction_2" data-name="Soustraction 2" d="M-1502.861,1721h-92.278a47.388,47.388,0,0,1-.861-9,46.708,46.708,0,0,1,3.693-18.294,46.843,46.843,0,0,1,10.072-14.939,46.843,46.843,0,0,1,14.939-10.073A46.707,46.707,0,0,1-1549,1665a46.7,46.7,0,0,1,18.294,3.693,46.845,46.845,0,0,1,14.94,10.073,46.847,46.847,0,0,1,10.073,14.939A46.706,46.706,0,0,1-1502,1712a47.388,47.388,0,0,1-.861,9Z" transform="translate(2251 -1401)" fill="#cc9000"/>
    <path id="Soustraction_1" data-name="Soustraction 1" d="M-1467,1817h-118.109a73.684,73.684,0,0,1-5.89-29,73.686,73.686,0,0,1,5.972-29.194,74.716,74.716,0,0,1,7.007-12.74,75.766,75.766,0,0,1,9.28-11.1,76.347,76.347,0,0,1,11.248-9.158,76.34,76.34,0,0,1,12.91-6.915A76.394,76.394,0,0,1-1515,1713a76.682,76.682,0,0,1,25.919,4.474A75.976,75.976,0,0,1-1467,1729.849V1817Z" transform="translate(2298 -1497.001)" fill="#db9a00"/>
    <g id="undraw_happy_feeling_re_e76r" transform="translate(637.685 113.548)">
      <path id="Tracé_18" data-name="Tracé 18" d="M231.841,144.983l-2.386.759q-.045-.195-.1-.389c-.309-1-.449.794-1.253.13.057.858-1.178-7.966-1.3-7.117-.05.357.382,6.269.3,6.618l-18.527.177c.1-1.784-.846-1.1-1.687-2.673-.5,1.48-.574.407-1.36,1.747-.329.566-.681,1.111-1.061,1.642-.182.262-.374.519-.571.774l-.252.08-1.248-24.457c0-8.063,6.988-11.979,12.478-6.738,2.917,2.785,10.052-.861,11.7,1.779s2.278,6.291,2.278,10.324l2.995,17.344Z" transform="translate(-80.501 -62.511)" fill="#2f2e41"/>
      <path id="Tracé_23" data-name="Tracé 23" d="M227.377,169.523l-12.228,1.248-7.736,44.421,23.458,3.743Z" transform="translate(-83.274 -93.654)" fill="#db9a00"/>
      <path id="Tracé_24" data-name="Tracé 24" d="M187.591,180.188l1.248,28.949-10.98,19.216,7.986,7.237s14.724-29.2,15.223-37.184-2.371-24.485-2.371-24.485l-11.1,6.267Z" transform="translate(-66.947 -96.083)" fill="#2f2e41"/>
      <path id="Tracé_25" data-name="Tracé 25" d="M260.964,180.188l-1.248,28.949,10.98,19.216-16.97,7.736s-5.74-29.7-6.239-37.683,2.371-24.485,2.371-24.485Z" transform="translate(-105.382 -96.083)" fill="#2f2e41"/>
      <path id="Tracé_26" data-name="Tracé 26" d="M199.668,265.432l-5.74.749-3.244,34.688,4.492,52.521h7.349l5.378-58.51,9.483,21.961-6.938,36.549,6.938.708,13.975-38-9.733-44.172Z" transform="translate(-74.032 -146.639)" fill="#2f2e41"/>
      <path id="Tracé_27" data-name="Tracé 27" d="M263.1,321.053a5.683,5.683,0,0,1,1.29-2.354l2.011-9.272,4.384,1.086L268.27,319.8a5.685,5.685,0,0,1-.139,2.68c-.62,2.184-2.25,3.635-3.64,3.24s-2.014-2.485-1.394-4.67Z" transform="translate(-113.905 -170.945)" fill="#ffb6b6"/>
      <path id="Tracé_28" data-name="Tracé 28" d="M264.748,183.725s8.094-.412,8.684,4.955,2.475,35.938,2.475,35.938l-4.371,20.634-6.233-.866,2.754-26.265-3.31-34.4Z" transform="translate(-114.949 -101.496)" fill="#2f2e41"/>
      <path id="Tracé_29" data-name="Tracé 29" d="M103.626,218.978a5.7,5.7,0,0,1,2.2,1.561l9.007,3.087-1.594,4.243-8.965-3.589a5.7,5.7,0,0,1-2.655-.452c-2.1-.873-3.36-2.667-2.8-4.006s2.712-1.717,4.817-.844h0Z" transform="translate(-23.203 -120.716)" fill="#ffb6b6"/>
      <path id="Tracé_30" data-name="Tracé 30" d="M169.554,186.832h0l-20.547,27.735-24.085-6.632,1.047-6.283,18.34,3.474L154.541,189.4c3.341-6.458,9.926-7.759,15.013-2.564Z" transform="translate(-37.702 -101.444)" fill="#2f2e41"/>
      <circle id="Ellipse_8" data-name="Ellipse 8" cx="9.012" cy="9.012" r="9.012" transform="translate(128.076 55.319)" fill="#ffb7b7"/>
      <path id="Tracé_31" data-name="Tracé 31" d="M230.8,127.882h-3.036l-.825-1.111c-.4,0-.7,1.068-1.079.987a6.467,6.467,0,0,1-3.122-1.706q-.111-.107-.231-.206v.02a1.924,1.924,0,0,1-1.937,2.016h-5.854a2.438,2.438,0,0,0-2.357,3.058l-.526,18.9c0-3.858-17.07-23.558-5.49-31.444,2.681-1.826,4.627-1.5,8.485-1.5h0a10.711,10.711,0,0,1,15.317,6.227,16.573,16.573,0,0,1,.655,4.753Z" transform="translate(-80.458 -63.877)" fill="#2f2e41"/>
      <g id="Groupe_53" data-name="Groupe 53" transform="translate(56.678)">
        <path id="Tracé_43" data-name="Tracé 43" d="M79.279,0a22.6,22.6,0,0,0-22.6,22.6c0,10.5,9.2,24.167,17.833,30.9a7.317,7.317,0,0,0,2.544,1.277l.848,3.051A1.466,1.466,0,0,0,79.315,58.9h.107a1.466,1.466,0,0,0,1.431-1.148l.7-3.135a7.548,7.548,0,0,0,2.131-1.17c9.657-7.562,18.2-19.993,18.2-30.845A22.6,22.6,0,0,0,79.279,0Z" transform="translate(-56.678)" fill="#db9a00"/>
        <path id="Tracé_44" data-name="Tracé 44" d="M107.14,123.794c-2.716,6.8-4.9,5.254-6.849,0v-1.37h6.849Z" transform="translate(-80.772 -67.634)" fill="#3f3d56"/>
        <path id="Tracé_45" data-name="Tracé 45" d="M107.613,123.954l-.154,12.913-.007.438-.031,44.86v2.082l-.007.658h-.688l.007-.623v-2.116l.034-44.86.038-3.092.124-10.266Z" transform="translate(-84.327 -68.475)" fill="#3f3d56"/>
        <path id="Tracé_46" data-name="Tracé 46" d="M105.4,184.727h-.691l-.065-.623-.013-2.116-.277-44.86-1.411-13.43.681-.072,1.092,10.41.325,3.092.137,44.86,0,.661.15,1.421Z" transform="translate(-82.235 -68.298)" fill="#3f3d56"/>
        <path id="Tracé_47" data-name="Tracé 47" d="M109.912,123.7l-1.411,13.43-.4,44.86-.024,2.74h-.627l.219-2.079,0-.661.137-44.86.048-.438,1.369-13.064Z" transform="translate(-84.729 -68.298)" fill="#3f3d56"/>
      </g>
    </g>
  </g>
</svg>
